<svg width="16" height="26" viewBox="0 0 16 26" fill="none" xmlns="http://www.w3.org/2000/svg">
<path fill-rule="evenodd" clip-rule="evenodd" d="M0.610841 11.5954C0.21972 11.9616 0 12.4582 0 12.976C0 13.4938 0.21972 13.9904 0.610841 14.3567L12.413 25.4038C12.6055 25.5903 12.8357 25.7391 13.0903 25.8415C13.3448 25.9438 13.6186 25.9977 13.8956 25.9999C14.1726 26.0022 14.4473 25.9528 14.7037 25.8546C14.9601 25.7564 15.193 25.6114 15.3889 25.428C15.5848 25.2447 15.7397 25.0266 15.8446 24.7866C15.9495 24.5466 16.0023 24.2895 15.9999 24.0302C15.9975 23.7709 15.94 23.5147 15.8306 23.2764C15.7213 23.0381 15.5623 22.8227 15.3631 22.6425L5.03588 12.976L15.3631 3.30949C15.7431 2.94118 15.9534 2.44789 15.9486 1.93586C15.9439 1.42384 15.7245 0.934042 15.3377 0.571971C14.9508 0.2099 14.4276 0.00452319 13.8806 7.38222e-05C13.3335 -0.00437555 12.8065 0.192459 12.413 0.548183L0.610841 11.5954Z" fill="#FF80EB"/>
</svg>
