<svg width="23" height="22" viewBox="0 0 23 22" fill="none" xmlns="http://www.w3.org/2000/svg">
<path d="M14.3747 9.16693L13.6655 9.05418C13.6484 9.15267 13.6539 9.25353 13.6817 9.34978C13.7094 9.44602 13.7588 9.53532 13.8262 9.61147C13.8937 9.68763 13.9778 9.74882 14.0725 9.79077C14.1672 9.83273 14.2703 9.85445 14.3747 9.85443V9.16693ZM3.83301 9.16693V8.47943C3.64238 8.47943 3.45957 8.55187 3.32477 8.6808C3.18998 8.80973 3.11426 8.9846 3.11426 9.16693H3.83301ZM5.74967 19.0211H16.6363V17.6461H5.74967V19.0211ZM17.7863 8.47943H14.3747V9.85443H17.7863V8.47943ZM15.0838 9.27968L15.8563 4.8476L14.4379 4.62118L13.6655 9.05418L15.0838 9.27968ZM14.2022 2.97943H13.9971V4.35443H14.2012L14.2022 2.97943ZM11.0061 4.51027L8.59592 7.96885L9.79192 8.73152L12.2021 5.27293L11.0061 4.51027ZM7.59926 8.47943H3.83301V9.85443H7.59926V8.47943ZM3.11426 9.16693V16.5003H4.55176V9.16693H3.11426ZM19.221 16.9953L20.371 11.4953L18.9622 11.2248L17.8122 16.7248L19.221 16.9953ZM8.59592 7.96885C8.48658 8.12586 8.33839 8.2537 8.16453 8.34277C7.99066 8.43184 7.79649 8.47847 7.59926 8.47852V9.85352C8.48092 9.85352 9.30317 9.43277 9.79192 8.73152L8.59592 7.96885ZM15.8563 4.8476C15.8962 4.61785 15.8833 4.38163 15.8186 4.15711C15.7539 3.9326 15.6388 3.72425 15.4814 3.54657C15.324 3.36888 15.128 3.2261 14.9071 3.12816C14.6862 3.03023 14.4457 2.97947 14.2022 2.97943L14.2012 4.35443C14.236 4.35451 14.2712 4.36182 14.3027 4.37584C14.3342 4.38987 14.3621 4.41028 14.3846 4.43565C14.407 4.46103 14.4234 4.49076 14.4326 4.5228C14.4418 4.55483 14.4436 4.5884 14.4379 4.62118L15.8563 4.8476ZM17.7863 9.85352C18.5434 9.85352 19.1088 10.5153 18.9613 11.2239L20.371 11.4943C20.4472 11.1287 20.4377 10.7505 20.3432 10.3887C20.2486 10.027 20.0713 9.68985 19.8241 9.40156C19.5769 9.11327 19.2659 8.88102 18.9135 8.72157C18.5611 8.56211 18.1762 8.47941 17.7863 8.47943V9.85352ZM16.6363 19.0211C17.2456 19.0212 17.836 18.8185 18.3072 18.4492C18.7784 18.0798 19.1013 17.5657 19.221 16.9943L17.8122 16.7239C17.7579 16.9839 17.611 17.2178 17.3966 17.3858C17.1822 17.5538 16.9135 17.6464 16.6363 17.6461V19.0211ZM13.9971 2.97943C13.4055 2.97947 12.823 3.1183 12.3014 3.38535C11.7798 3.6524 11.3352 4.03849 11.0071 4.50935L12.2021 5.27293C12.3991 4.99029 12.666 4.75764 12.9792 4.5974C13.2923 4.43717 13.642 4.35431 13.9971 4.35443V2.97943ZM5.74967 17.6461C5.08842 17.6461 4.55176 17.1328 4.55176 16.5003H3.11426C3.11426 17.1688 3.39192 17.81 3.88615 18.2828C4.38039 18.7555 5.05072 19.0211 5.74967 19.0211V17.6461Z" fill="#C8C8C8"/>
<path d="M7.66602 9.16699V18.3337" stroke="#C8C8C8" stroke-width="1.5"/>
</svg>
