<svg width="21" height="20" viewBox="0 0 21 20" fill="none" xmlns="http://www.w3.org/2000/svg">
<path d="M13.3439 1.66602H5.84391C5.40189 1.66602 4.97796 1.84161 4.6654 2.15417C4.35284 2.46673 4.17725 2.89065 4.17725 3.33268V16.666C4.17725 17.108 4.35284 17.532 4.6654 17.8445C4.97796 18.1571 5.40189 18.3327 5.84391 18.3327H15.8439C16.2859 18.3327 16.7099 18.1571 17.0224 17.8445C17.335 17.532 17.5106 17.108 17.5106 16.666V5.83268L13.3439 1.66602Z" stroke="#727272" stroke-width="2" stroke-linecap="round" stroke-linejoin="round"/>
<path d="M12.5103 1.66602V4.99935C12.5103 5.44138 12.6858 5.8653 12.9984 6.17786C13.311 6.49042 13.7349 6.66602 14.1769 6.66602H17.5103" stroke="#727272" stroke-width="2" stroke-linecap="round" stroke-linejoin="round"/>
</svg>
