<svg width="16" height="26" viewBox="0 0 16 26" fill="none" xmlns="http://www.w3.org/2000/svg">
<path fill-rule="evenodd" clip-rule="evenodd" d="M15.3892 11.5954C15.7803 11.9616 16 12.4582 16 12.976C16 13.4938 15.7803 13.9904 15.3892 14.3567L3.58695 25.4038C3.3945 25.5903 3.16429 25.7391 2.90975 25.8415C2.65521 25.9438 2.38145 25.9977 2.10443 25.9999C1.82741 26.0022 1.55269 25.9528 1.29629 25.8546C1.03989 25.7564 0.806952 25.6114 0.611063 25.428C0.415175 25.2447 0.26026 25.0266 0.155359 24.7866C0.0504581 24.5466 -0.00232844 24.2895 7.87726e-05 24.0302C0.00248598 23.7709 0.0600393 23.5147 0.16938 23.2764C0.278721 23.0381 0.43766 22.8227 0.636923 22.6425L10.9641 12.976L0.636923 3.30949C0.256886 2.94118 0.0465986 2.44789 0.0513521 1.93586C0.0561056 1.42384 0.275519 0.934042 0.662336 0.571971C1.04915 0.2099 1.57242 0.00452319 2.11945 7.38222e-05C2.66647 -0.00437555 3.19347 0.192459 3.58695 0.548183L15.3892 11.5954Z" fill="#FF80EB"/>
</svg>
