<svg width="21" height="20" viewBox="0 0 21 20" fill="none" xmlns="http://www.w3.org/2000/svg">
<path d="M13.8335 10.8324L18.186 13.7341C18.2487 13.7758 18.3216 13.7998 18.3969 13.8034C18.4722 13.807 18.5471 13.7901 18.6135 13.7545C18.6799 13.719 18.7355 13.666 18.7742 13.6014C18.813 13.5367 18.8335 13.4628 18.8335 13.3874V6.55741C18.8335 6.4841 18.8142 6.41208 18.7775 6.34862C18.7408 6.28516 18.688 6.23252 18.6244 6.196C18.5608 6.15948 18.4887 6.14038 18.4154 6.14063C18.3421 6.14088 18.2702 6.16046 18.2068 6.19742L13.8335 8.74908" stroke="#727272" stroke-width="2" stroke-linecap="round" stroke-linejoin="round"/>
<path d="M12.1665 5H3.83317C2.9127 5 2.1665 5.74619 2.1665 6.66667V13.3333C2.1665 14.2538 2.9127 15 3.83317 15H12.1665C13.087 15 13.8332 14.2538 13.8332 13.3333V6.66667C13.8332 5.74619 13.087 5 12.1665 5Z" stroke="#727272" stroke-width="2" stroke-linecap="round" stroke-linejoin="round"/>
</svg>
